<svg xmlns="http://www.w3.org/2000/svg" version="1.0" width="350px" height="350px" viewBox="473 0 350.000000 595.000000" preserveAspectRatio="xMidYMid meet">

<g transform="translate(0.000000,855.000000) scale(0.100000,-0.100000)" fill="#009688" stroke="#F0FF">
<path d="M7860 8333 c-8 -3 -30 -19 -47 -36 -99 -93 41 -242 153 -165 69 48 73 133 8 182 -27 19 -88 30 -114 19z"/>
<path d="M7128 7994 c-78 -42 -56 -155 31 -168 111 -16 154 137 49 173 -39 14 -47 13 -80 -5z"/>
<path d="M8075 7905 c-78 -28 -135 -122 -121 -198 4 -19 18 -51 31 -71 14 -20 25 -38 25 -39 0 -1 -22 -2 -48 -3 -90 -2 -164 -60 -183 -146 -20 -86 41 -186 130 -212 l46 -14 -57 -7 c-77 -10 -166 -53 -221 -107 -24 -24 -46 -49 -48 -55 -3 -8 -23 -7 -73 4 -55 13 -81 13 -133 5 -79 -13 -175 -57 -227 -105 l-39 -35 -21 20 c-29 27 -56 41 -56 29 0 -5 6 -12 13 -14 7 -4 8 -6 1 -6 -6 -1 -17 6 -24 14 -7 8 -9 15 -4 15 5 0 -11 13 -36 28 -42 25 -53 27 -150 27 -98 0 -109 -2 -171 -32 -40 -20 -84 -52 -113 -83 l-47 -50 -507 0 -508 0 -146 -252 c-80 -139 -168 -290 -194 -336 -27 -46 -54 -93 -61 -104 -11 -20 -11 -20 -26 3 -17 27 -213 363 -326 562 l-74 127 -604 0 -605 0 20 -32 c11 -18 64 -112 119 -208 56 -96 124 -215 153 -265 28 -49 122 -211 207 -360 85 -148 168 -290 183 -315 16 -25 42 -70 58 -100 17 -30 69 -122 117 -205 48 -82 96 -166 107 -185 11 -19 29 -49 39 -67 19 -31 20 -55 20 -727 -1 -383 2 -696 7 -697 4 0 273 -1 597 -1 l590 -1 5 699 c5 650 6 702 23 727 16 24 418 724 471 819 21 38 36 49 36 25 0 -25 52 -88 89 -107 73 -37 118 -36 213 4 15 7 15 1 -3 -66 -37 -141 -59 -323 -59 -501 0 -404 100 -745 313 -1062 216 -321 524 -491 1032 -567 135 -20 761 -17 1100 5 149 10 276 20 283 22 9 4 12 183 12 855 l0 850 -600 0 -600 0 0 -246 0 -247 -77 6 c-114 8 -186 38 -253 107 -72 73 -95 142 -95 280 1 193 82 327 244 404 65 31 68 31 216 31 122 0 166 -5 235 -23 107 -27 212 -68 328 -126 l90 -45 88 147 c48 81 97 163 109 182 27 42 165 271 287 474 l90 149 -24 18 c-80 61 -326 190 -468 245 l-85 32 0 60 0 60 61 4 c108 7 178 75 178 174 0 167 -235 238 -335 101 -16 -22 -31 -55 -35 -74 -5 -27 -10 -33 -23 -27 -31 13 -139 16 -175 4 -19 -6 -51 -22 -71 -36 l-37 -24 -45 50 c-56 63 -132 108 -196 116 -53 7 -74 24 -30 24 15 0 44 10 63 21 96 59 124 149 75 245 -14 27 -25 49 -25 49 85 0 104 4 143 31 57 41 79 82 78 149 0 66 -18 103 -68 144 -61 50 -125 62 -198 36z m-1130 -905 c10 -11 16 -20 13 -20 -3 0 -13 9 -23 20 -10 11 -16 20 -13 20 3 0 13 -9 23 -20z m75 -105 c0 -13 -4 -26 -8 -29 -5 -3 -8 10 -8 29 1 37 16 37 16 0z m-364 -494 c27 -17 65 -37 86 -43 21 -6 38 -15 38 -20 0 -5 -14 -29 -30 -54 -17 -24 -49 -83 -72 -130 l-41 -86 -18 37 c-37 76 -121 121 -204 111 l-53 -6 82 143 c45 78 85 148 90 155 5 9 17 0 41 -31 19 -25 55 -59 81 -76z m-1611 -1331 c3 -5 -3 -10 -14 -10 -12 0 -21 5 -21 10 0 6 6 10 14 10 8 0 18 -4 21 -10z m-48 -35 c-16 -17 -20 -11 -12 16 5 16 9 18 15 9 4 -7 3 -19 -3 -25z m63 -10 c0 -18 -4 -23 -15 -19 -16 6 -20 26 -8 37 13 14 23 6 23 -18z m-20 -64 c22 -9 23 -10 4 -10 -11 -1 -31 11 -45 26 -16 19 -17 22 -4 11 11 -9 32 -21 45 -27z m-50 -76 c7 -9 8 -15 2 -15 -5 0 -12 7 -16 15 -3 8 -4 15 -2 15 2 0 9 -7 16 -15z m-139 -102 c13 -16 12 -17 -3 -4 -10 7 -18 15 -18 17 0 8 8 3 21 -13z m2629 -12 c-1 -27 -15 -51 -31 -51 -11 0 -22 -7 -25 -15 -4 -8 -13 -15 -21 -15 -8 0 -11 5 -8 10 3 6 1 10 -4 10 -6 0 -11 5 -11 10 0 6 9 10 20 10 11 0 20 5 20 10 0 6 7 10 16 10 12 0 14 3 6 13 -8 9 -4 12 14 13 13 1 24 -1 24 -5z m336 -180 c14 -23 21 -47 18 -53 -4 -7 -2 -8 4 -4 7 4 12 3 12 -3 0 -5 -4 -13 -10 -16 -5 -3 -7 -20 -4 -38 3 -25 2 -28 -5 -12 -9 19 -10 19 -10 -2 -1 -12 -6 -25 -11 -28 -7 -4 -9 2 -5 17 4 16 -4 43 -24 81 -17 32 -27 56 -23 53 5 -3 14 -1 22 4 13 8 13 13 2 31 -10 15 -10 20 -2 17 7 -2 23 -23 36 -47z m-579 -83 c-3 -8 -6 -5 -6 6 -1 11 2 17 5 13 3 -3 4 -12 1 -19z m623 -18 c0 -11 -2 -20 -4 -20 -2 0 -6 9 -9 20 -3 11 -1 20 4 20 5 0 9 -9 9 -20z m7 -72 c-3 -8 -6 -5 -6 6 -1 11 2 17 5 13 3 -3 4 -12 1 -19z m-640 -60 c-3 -8 -6 -5 -6 6 -1 11 2 17 5 13 3 -3 4 -12 1 -19z m591 -53 l1 -20 -9 20 c-5 11 -8 31 -8 45 l0 25 8 -25 c4 -14 8 -34 8 -45z m22 35 c0 -5 -2 -10 -4 -10 -3 0 -8 5 -11 10 -3 6 -1 10 4 10 6 0 11 -4 11 -10z m-580 -31 c0 -6 -4 -7 -10 -4 -5 3 -10 11 -10 16 0 6 5 7 10 4 6 -3 10 -11 10 -16z m21 -136 c13 -17 13 -17 -6 -3 -11 8 -22 16 -24 17 -2 2 0 3 6 3 6 0 17 -8 24 -17z"/>
<path d="M7790 4570 c0 -5 5 -10 11 -10 5 0 7 5 4 10 -3 6 -8 10 -11 10 -2 0 -4 -4 -4 -10z"/>
<path d="M7806 4505 c4 -8 8 -15 10 -15 2 0 4 7 4 15 0 8 -4 15 -10 15 -5 0 -7 -7 -4 -15z"/>
<path d="M7648 7881 c-181 -58 -141 -311 50 -311 69 0 127 31 153 82 24 48 24 89 -1 119 -33 40 -35 44 -35 58 0 38 -106 71 -167 52z m143 -148 c13 -16 12 -17 -3 -4 -10 7 -18 15 -18 17 0 8 8 3 21 -13z m45 -50 c-8 -9 -37 18 -30 28 3 5 12 2 21 -6 8 -9 13 -19 9 -22z m-86 -23 c0 -5 -2 -10 -4 -10 -3 0 -8 5 -11 10 -3 6 -1 10 4 10 6 0 11 -4 11 -10z m7 -44 c0 -8 -6 -12 -15 -9 -11 5 -11 7 0 14 7 5 13 9 14 9 0 0 1 -6 1 -14z"/>
<path d="M8590 7831 c-153 -47 -236 -213 -183 -366 35 -99 156 -185 260 -185 71 0 136 30 194 89 47 48 58 67 73 122 15 56 16 74 7 121 -21 100 -94 184 -190 216 -38 13 -122 14 -161 3z"/>
<path d="M7830 7825 c0 -5 5 -17 10 -25 5 -8 10 -10 10 -5 0 6 -5 17 -10 25 -5 8 -10 11 -10 5z"/>
<path d="M7224 7541 c-56 -26 -119 -100 -133 -158 -22 -84 0 -153 70 -222 100 -98 264 -90 361 17 46 50 61 99 56 173 -5 73 -42 130 -113 174 -41 26 -60 30 -124 32 -57 2 -86 -2 -117 -16z m226 -71 c0 -5 -2 -10 -4 -10 -3 0 -8 5 -11 10 -3 6 -1 10 4 10 6 0 11 -4 11 -10z m60 -22 c0 -5 -9 -3 -20 4 -11 7 -20 16 -20 20 0 5 9 3 20 -4 11 -7 20 -16 20 -20z m44 -50 c-3 -5 -12 -1 -20 9 -20 26 -17 35 5 16 11 -9 18 -21 15 -25z m-68 -46 c-5 -4 -46 35 -46 45 0 3 11 -4 25 -17 14 -13 23 -25 21 -28z m-101 -12 c3 -5 1 -10 -4 -10 -6 0 -11 5 -11 10 0 6 2 10 4 10 3 0 8 -4 11 -10z"/>
</g>
</svg>